<?xml version="1.0" encoding="UTF-8"?>
<svg id="Layer_2" data-name="Layer 2" xmlns="http://www.w3.org/2000/svg" viewBox="0 0 468.33 468.33">
  <defs>
    <style>
      .cls-1 {
        fill: #738f5f;
      }

      .cls-2 {
        fill: #fdfdfd;
      }
    </style>
  </defs>
  <g id="Layer_1-2" data-name="Layer 1">
    <circle class="cls-1" cx="234.17" cy="234.17" r="234.17"/>
    <path class="cls-2" d="M415.58,310.55c1.24,1.26,1.86,2.83,1.86,4.72-.19,13-2.77,24.37-7.74,34.12-4.97,9.75-11.75,17.93-20.35,24.53-8.6,6.6-18.4,11.54-29.39,14.78-10.99,3.25-22.79,4.87-35.4,4.87-18.16,0-34.02-3.09-47.59-9.28-13.57-6.18-24.22-15.56-31.96-28.15-7.74-12.58-11.99-28.51-12.76-47.8-.19-8.6-.29-17.82-.29-27.68s.1-19.29.29-28.31c.1-2.46.27-4.88.49-7.24v-45.1l-28.31,49.7c-1.05,1.68-2.41,3.36-4.09,5.03-1.68,1.68-4.09,2.52-7.23,2.52h-19.19c-2.93,0-5.24-.84-6.91-2.52-1.68-1.68-3.05-3.35-4.09-5.03l-28.3-49.7v101.91c0,2.3-.79,4.25-2.37,5.81-1.57,1.58-3.51,2.36-5.81,2.36h-47.18c-2.31,0-4.3-.78-5.97-2.36-1.68-1.57-2.52-3.51-2.52-5.81V98.12c0-2.3.83-4.25,2.52-5.82,1.68-1.57,3.66-2.36,5.97-2.36h41.83c3.78,0,6.6,1.05,8.49,3.15,1.89,2.1,3.15,3.57,3.78,4.4l50.32,87.44,50.33-87.44c.63-.83,1.89-2.3,3.78-4.4,1.89-2.09,4.72-3.15,8.49-3.15h41.83c2.3,0,4.25.79,5.81,2.36,1.58,1.58,2.36,3.52,2.36,5.82v72.11c8.79-2.07,18.21-3.1,28.29-3.1,12.61,0,24.41,1.63,35.4,4.87,10.99,3.26,20.78,8.18,29.39,14.78,8.6,6.61,15.38,14.74,20.35,24.37,4.97,9.65,7.55,20.97,7.74,33.97,0,1.89-.62,3.51-1.86,4.87-1.24,1.36-2.72,2.05-4.44,2.05h-48.45c-2.87,0-4.97-.63-6.3-1.89-1.34-1.26-2.49-3.46-3.44-6.61-2.49-9.01-6.12-15.09-10.89-18.24-4.78-3.15-10.61-4.72-17.48-4.72-8.42,0-15.1,2.46-20.07,7.39-4.97,4.93-7.64,13.58-8.03,25.94-.08,2.15-.14,4.31-.19,6.47-.32,12.98-.32,26.19,0,39.64.05,2.24.11,4.49.19,6.74.39,12.37,3.06,21.02,8.03,25.95,4.97,4.93,11.65,7.39,20.07,7.39,6.88,0,12.75-1.68,17.63-5.03,4.87-3.35,8.45-9.33,10.75-17.93.76-3.35,1.86-5.61,3.3-6.76,1.43-1.15,3.58-1.73,6.44-1.73h48.45c1.72,0,3.2.63,4.44,1.89Z"/>
  </g>
</svg>